<svg xmlns="http://www.w3.org/2000/svg" height="480pt" viewBox="-95 0 480 480.44983" width="480pt"><path d="m285.816406 279.46875-57.589844-43.097656v-95.441406c0-35.476563-16.203124-104.8125-77.8125-139.636719-3.011718-1.722657-6.714843-1.722657-9.726562 0-61.609375 34.824219-77.988281 104.160156-77.988281 139.636719 0 .222656.039062.445312.050781.667968.300781 4.546875.332031 60.871094.332031 95.027344l-58.582031 42.761719c-2.617188 1.863281-4.203125 4.851562-4.273438 8.066406v32.738281c.179688 5.601563 4.777344 10.046875 10.382813 10.035156h64.867187l5.273438 25.027344c2.972656 13.871094 15.164062 23.828125 29.347656 23.972656h71.253906c14.183594-.144531 26.375-10.101562 29.347657-23.972656l5.273437-25.027344h63.867188c5.605468.011719 10.207031-4.433593 10.386718-10.035156v-32.738281c-.167968-3.195313-1.792968-6.140625-4.410156-7.984375zm-77.589844-47.242188h-125.128906c0-8.964843 0-17.703124-.007812-26h125.136718zm-62.734374-210.585937c49.550781 31.132813 62.734374 89.121094 62.734374 119.289063v45.296874h-125.15625c-.039062-23.992187-.242187-41.550781-.429687-45.554687.078125-30.238281 13.4375-87.988281 62.851563-119.03125zm45.640624 329.460937c-.976562 4.652344-5.027343 8.015626-9.78125 8.125h-71.253906c-4.753906-.109374-8.804687-3.472656-9.78125-8.125l-4.390625-20.875h99.597657zm79.09375-40.875h-250v-17.703124l55.425782-40.296876h140.84375l53.730468 40.210938zm0 0" style="&#10;fill: #02CA97;&#10;"/><path d="m145.226562 390.664062c-5.523437 0-10 4.476563-10 10v69.785157c0 5.523437 4.476563 10 10 10 5.519532 0 10-4.476563 10-10v-69.785157c0-5.523437-4.480468-10-10-10zm0 0" style="&#10;    fill: #02CA97;&#10;"/><path d="m216.226562 390.664062c-5.523437 0-10 4.476563-10 10v30.914063c0 5.523437 4.476563 10 10 10 5.519532 0 10-4.476563 10-10v-30.914063c0-5.523437-4.480468-10-10-10zm0 0" style="&#10;    fill: #02CA97;&#10;"/><path d="m75.226562 390.664062c-5.523437 0-10 4.476563-10 10v30.914063c0 5.523437 4.476563 10 10 10 5.519532 0 10-4.476563 10-10v-30.914063c0-5.523437-4.480468-10-10-10zm0 0" style="&#10;    fill: #02CA97;&#10;"/><path d="m118.777344 156.152344c14.867187 14.769531 38.886718 14.714844 53.683594-.128906 14.792968-14.84375 14.773437-38.867188-.042969-53.683594-14.820313-14.820313-38.84375-14.839844-53.683594-.046875-14.84375 14.796875-14.902344 38.820312-.132813 53.6875.058594.054687.117188.113281.175782.171875zm14.140625-39.757813c7.074219-7.070312 18.542969-7.070312 25.613281 0 7.074219 7.074219 7.074219 18.542969 0 25.617188-7.070312 7.070312-18.539062 7.070312-25.613281 0-7.074219-7.03125-7.109375-18.460938-.082031-25.535157zm0 0" style="&#10;    fill: #02CA97;&#10;"/></svg>